<svg width="400" height="300" viewBox="0 0 400 300" fill="none" xmlns="http://www.w3.org/2000/svg">
  <!-- Background -->
  <rect width="400" height="300" fill="#1a1a2e"/>
  
  <!-- Monitor -->
  <rect x="80" y="80" width="240" height="140" rx="8" fill="#2d2d44"/>
  <rect x="90" y="90" width="220" height="120" fill="#0f0f23"/>
  
  <!-- Code on screen -->
  <rect x="100" y="105" width="80" height="4" fill="#7c3aed"/>
  <rect x="110" y="115" width="60" height="4" fill="#06b6d4"/>
  <rect x="110" y="125" width="90" height="4" fill="#22c55e"/>
  <rect x="100" y="135" width="70" height="4" fill="#f59e0b"/>
  
  <rect x="100" y="150" width="50" height="4" fill="#7c3aed"/>
  <rect x="110" y="160" width="80" height="4" fill="#06b6d4"/>
  <rect x="110" y="170" width="45" height="4" fill="#22c55e"/>
  
  <!-- Keyboard -->
  <rect x="120" y="235" width="160" height="30" rx="4" fill="#2d2d44"/>
  <rect x="125" y="240" width="8" height="6" rx="1" fill="#4a4a68"/>
  <rect x="138" y="240" width="8" height="6" rx="1" fill="#4a4a68"/>
  <rect x="151" y="240" width="8" height="6" rx="1" fill="#4a4a68"/>
  <rect x="164" y="240" width="8" height="6" rx="1" fill="#4a4a68"/>
  
  <!-- Coffee cup -->
  <circle cx="340" cy="200" r="25" fill="#8b4513"/>
  <circle cx="340" cy="200" r="20" fill="#d2691e"/>
  <ellipse cx="340" cy="190" rx="15" ry="3" fill="#654321"/>
  
  <!-- Floating particles -->
  <circle cx="60" cy="60" r="3" fill="#7c3aed" opacity="0.6"/>
  <circle cx="350" cy="80" r="2" fill="#06b6d4" opacity="0.8"/>
  <circle cx="40" cy="180" r="2.5" fill="#22c55e" opacity="0.7"/>
  <circle cx="370" cy="250" r="2" fill="#f59e0b" opacity="0.5"/>
</svg>