<svg width="400" height="300" viewBox="0 0 400 300" fill="none" xmlns="http://www.w3.org/2000/svg">
  <!-- Background -->
  <rect width="400" height="300" fill="#0f172a" opacity="0.1"/>
  
  <!-- Mobile devices -->
  <rect x="80" y="60" width="60" height="100" rx="12" fill="#1e293b"/>
  <rect x="85" y="70" width="50" height="80" fill="#0f172a"/>
  
  <rect x="160" y="50" width="80" height="120" rx="16" fill="#1e293b"/>
  <rect x="167" y="65" width="66" height="90" fill="#0f172a"/>
  
  <!-- App interface -->
  <rect x="90" y="80" width="30" height="4" fill="#7c3aed"/>
  <rect x="90" y="90" width="20" height="4" fill="#06b6d4"/>
  <rect x="90" y="100" width="35" height="4" fill="#22c55e"/>
  
  <rect x="175" y="80" width="40" height="6" fill="#7c3aed"/>
  <rect x="175" y="95" width="50" height="6" fill="#06b6d4"/>
  <rect x="175" y="110" width="30" height="6" fill="#22c55e"/>
  
  <!-- Desktop -->
  <rect x="260" y="80" width="120" height="80" rx="8" fill="#1e293b"/>
  <rect x="268" y="88" width="104" height="64" fill="#0f172a"/>
  
  <!-- Desktop interface -->
  <rect x="275" y="100" width="60" height="4" fill="#7c3aed"/>
  <rect x="280" y="110" width="40" height="4" fill="#06b6d4"/>
  <rect x="280" y="120" width="70" height="4" fill="#22c55e"/>
  <rect x="275" y="130" width="50" height="4" fill="#f59e0b"/>
  
  <!-- Connection lines -->
  <path d="M 140 110 L 160 100" stroke="#7c3aed" stroke-width="2" opacity="0.6"/>
  <path d="M 240 110 L 260 120" stroke="#06b6d4" stroke-width="2" opacity="0.6"/>
  
  <!-- Cloud -->
  <circle cx="200" cy="220" r="25" fill="#64748b" opacity="0.3"/>
  <circle cx="185" cy="210" r="20" fill="#64748b" opacity="0.3"/>
  <circle cx="215" cy="210" r="20" fill="#64748b" opacity="0.3"/>
  
  <!-- Sync arrows -->
  <path d="M 110 170 Q 150 200 190 180" stroke="#22c55e" stroke-width="2" fill="none"/>
  <path d="M 210 180 Q 250 200 300 170" stroke="#22c55e" stroke-width="2" fill="none"/>
  
  <!-- API endpoints -->
  <rect x="320" y="200" width="60" height="30" rx="4" fill="#374151" opacity="0.7"/>
  <text x="350" y="218" text-anchor="middle" fill="#06b6d4" font-size="8" font-family="monospace">API</text>
</svg>